<svg width="56" height="55" viewBox="0 0 56 55" fill="none" xmlns="http://www.w3.org/2000/svg">
<path d="M21.3669 46.8476V39.9309C21.3668 38.1716 22.8506 36.7422 24.6891 36.7303H31.4232C33.2704 36.7303 34.7679 38.1633 34.7679 39.9309V39.9309V46.8691C34.7675 48.3628 36.0133 49.5836 37.5738 49.6186H42.0632C46.5387 49.6186 50.1667 46.1468 50.1667 41.8642V41.8642V22.1881C50.1428 20.5033 49.3161 18.9212 47.922 17.8921L32.5681 6.05636C29.8782 3.99553 26.0545 3.99553 23.3647 6.05636L8.0781 17.9135C6.67864 18.9385 5.85061 20.5233 5.83337 22.2096V41.8642C5.83337 46.1468 9.46142 49.6186 13.9368 49.6186H18.4263C20.0255 49.6186 21.322 48.378 21.322 46.8476V46.8476" stroke="black" stroke-width="1.5" stroke-linecap="round" stroke-linejoin="round"/>
</svg>
